<?xml version="1.0" encoding="UTF-8"?>
<svg id="Layer_1" data-name="Layer 1" xmlns="http://www.w3.org/2000/svg" version="1.1" viewBox="0 0 24 24">
  <defs>
    <style>
      .cls-1 {
        fill: #000;
        stroke-width: 0px;
      }
    </style>
  </defs>
  <path class="cls-1" d="M24,6.9v13.1h-11.5v3h5v1H6.5v-1h5v-3H0V4.5C0,3.1,1.1,2,2.5,2h13c-.3.3-.5.6-.9,1H2.5c-.8,0-1.5.7-1.5,1.5v14.5h22v-11l1-1.1ZM11.3,10C19.1.9,19.1.9,19.1.8c1.1-1.1,2.9-1.1,4.1,0,1.1,1.1,1.1,2.9,0,4.1l-8.2,8.8c-.1,1.8-1.6,3.3-3.5,3.3h-5.6v-.6c.1-.3,1.2-6.2,5.3-6.4h0ZM14,13.5c0-1.4-1.1-2.5-2.5-2.5-2.8,0-4,3.6-4.4,5h4.4c1.4,0,2.5-1.1,2.5-2.5ZM14.8,12.4l2.1-2.2c-.3-1.2-1.4-2.1-2.6-2.2-.6.7-1.3,1.5-1.8,2.1,1.1.3,2,1.2,2.4,2.3h0ZM15,7.1c1.2.3,2.1,1.1,2.6,2.2l4.8-5.2c.7-.7.7-1.9,0-2.7-.7-.7-1.9-.7-2.6,0,0,0-2.4,2.8-4.8,5.6h0Z"/>
</svg>