<?xml version="1.0" encoding="UTF-8"?>
<svg id="Layer_1" data-name="Layer 1" xmlns="http://www.w3.org/2000/svg" version="1.1" viewBox="0 0 24 24">
  <defs>
    <style>
      .cls-1 {
        fill: #000;
        stroke-width: 0px;
      }
    </style>
  </defs>
  <path class="cls-1" d="M1,2.5c0-.8.7-1.5,1.5-1.5h9.5v7h7v1.8c.3-.2.6-.4,1-.5v-2L12.7,0H2.5C1.1,0,0,1.1,0,2.5v21.5h9v-1H1V2.5ZM13,1.7l5.3,5.3h-5.3V1.7h0ZM23.3,11.7c-.9-.9-2.6-.9-3.5,0l-8.7,8.7v3.5h3.5l8.7-8.7c.5-.5.7-1.1.7-1.8s-.3-1.3-.7-1.8h0ZM22.6,14.6l-8.4,8.4h-2.1v-2.1l8.4-8.4c.6-.6,1.6-.6,2.1,0,.3.3.4.7.4,1.1s-.2.8-.4,1.1h0Z"/>
</svg>