<?xml version="1.0" encoding="UTF-8"?>
<svg id="Layer_1" data-name="Layer 1" xmlns="http://www.w3.org/2000/svg" version="1.1" viewBox="0 0 24 22">
  <defs>
    <style>
      .cls-1 {
        fill: #000;
        stroke-width: 0px;
      }
    </style>
  </defs>
  <path class="cls-1" d="M21.5,0H2.5C1.1,0,0,1.1,0,2.5v19.5h24V2.5c0-1.4-1.1-2.5-2.5-2.5ZM2.5,1h19c.8,0,1.5.7,1.5,1.5v4.5H1V2.5c0-.8.7-1.5,1.5-1.5ZM1,21v-13h22v13H1ZM3,4c0-.6.4-1,1-1s1,.4,1,1-.4,1-1,1-1-.4-1-1ZM6,4c0-.6.4-1,1-1s1,.4,1,1-.4,1-1,1-1-.4-1-1ZM9,4c0-.6.4-1,1-1s1,.4,1,1-.4,1-1,1-1-.4-1-1ZM15,19h6v-9h-6v9ZM16,11h4v7h-4v-7ZM3,14h11v-4H3v4ZM4,11h9v2H4v-2ZM3,19h11v-4H3v4ZM4,16h9v2H4v-2Z"/>
</svg>